<?xml version="1.0" encoding="UTF-8"?>
<svg width="144" height="144" fill="#000000" version="1.1" viewBox="0 0 72 72" xmlns="http://www.w3.org/2000/svg">
 <path x="5e-07" y="5e-07" width="72" height="72" d="m7.2 5e-7h57.6a7.2 7.2 45 0 1 7.2 7.2v57.6a7.2 7.2 135 0 1-7.2 7.2h-57.6a7.2 7.2 45 0 1-7.2-7.2v-57.6a7.2 7.2 135 0 1 7.2-7.2z" fill="#00abe7" stroke-width="0"/>
 <g transform="matrix(1.05 0 0 1.05 15 6)">
  <path d="m0 0h24v24h-24z" fill="none"/>
  <path d="m11.429 54.286c0 1.5714 1.2857 2.8571 2.8571 2.8571h11.429c1.5714 0 2.8571-1.2857 2.8571-2.8571v-2.8571h-17.143zm8.5714-54.286c-11.029 0-20 8.9714-20 20 0 6.8 3.4 12.771 8.5714 16.4v6.4571c0 1.5714 1.2857 2.8571 2.8571 2.8571h17.143c1.5714 0 2.8571-1.2857 2.8571-2.8571v-6.4571c5.1714-3.6286 8.5714-9.6 8.5714-16.4 0-11.029-8.9714-20-20-20zm8.1429 31.714-2.4286 1.7143v6.5714h-11.429v-6.5714l-2.4286-1.7143c-3.8571-2.6857-6.1429-7.0571-6.1429-11.714 0-7.8857 6.4-14.286 14.286-14.286s14.286 6.4 14.286 14.286c0 4.6571-2.2857 9.0286-6.1429 11.714z" fill="#fff"/>
  <path d="m28.174 40.406v-18.669h-10.05" fill="none" stroke="#fff" stroke-linecap="round" stroke-linejoin="round" stroke-width="5.2585"/>
 </g>
</svg>
