<?xml version="1.0" encoding="UTF-8" standalone="no"?>
<!-- Created with Inkscape (http://www.inkscape.org/) -->

<svg
   width="200mm"
   height="200mm"
   viewBox="0 0 200 200"
   version="1.1"
   id="svg5"
   inkscape:version="1.1.1 (3bf5ae0d25, 2021-09-20)"
   sodipodi:docname="Key.svg"
   inkscape:export-filename="C:\git\GoveeController\src\GoveeController\Images\TurnOnOff\Action@2x.png"
   inkscape:export-xdpi="28.222223"
   inkscape:export-ydpi="28.222223"
   xmlns:inkscape="http://www.inkscape.org/namespaces/inkscape"
   xmlns:sodipodi="http://sodipodi.sourceforge.net/DTD/sodipodi-0.dtd"
   xmlns="http://www.w3.org/2000/svg"
   xmlns:svg="http://www.w3.org/2000/svg">
  <sodipodi:namedview
     id="namedview7"
     pagecolor="#0bffff"
     bordercolor="#666666"
     borderopacity="1.0"
     inkscape:pageshadow="2"
     inkscape:pageopacity="0"
     inkscape:pagecheckerboard="0"
     inkscape:document-units="mm"
     showgrid="false"
     inkscape:zoom="0.77771465"
     inkscape:cx="-223.08954"
     inkscape:cy="437.82125"
     inkscape:window-width="2560"
     inkscape:window-height="1369"
     inkscape:window-x="1432"
     inkscape:window-y="286"
     inkscape:window-maximized="1"
     inkscape:current-layer="layer1" />
  <defs
     id="defs2" />
  <g
     inkscape:label="Layer 1"
     inkscape:groupmode="layer"
     id="layer1">
    <rect
       style="fill:#00abe7;fill-opacity:1;stroke:#d8d8d8;stroke-width:1.30562;stroke-linecap:round;stroke-linejoin:round"
       id="rect1176"
       width="198.69438"
       height="198.69437"
       x="0.65281081"
       y="0.65281081" />
    <g
       style="fill:#000000;stroke-width:0;stroke-miterlimit:4;stroke-dasharray:none"
       id="g1053"
       transform="matrix(4.1666667,0,0,4.1666667,50,50)">
      <path
         d="M 0,0 H 24 V 24 H 0 Z"
         fill="none"
         id="path1041"
         style="stroke-width:0;stroke-miterlimit:4;stroke-dasharray:none" />
    </g>
    <g
       style="fill:#000000"
       id="g837"
       transform="matrix(0.52362496,0,0,0.52362496,73.429125,50)">
      <path
         d="M 0,0 H 24 V 24 H 0 Z"
         fill="none"
         id="path825" />
      <path
         d="M 79.390551,105.03701 V 28.646457 C 79.390551,12.795418 66.595135,1.0817071e-6 50.744095,1.0817071e-6 34.893054,1.0817071e-6 22.097638,12.795418 22.097638,28.646457 v 76.390553 c -11.554072,8.68942 -19.0976382,22.6307 -19.0976382,38.19527 0,26.35474 21.3893542,47.7441 47.7440952,47.7441 26.35474,0 47.744096,-21.38936 47.744096,-47.7441 0,-15.56457 -7.543568,-29.50585 -19.09764,-38.19527 z M 41.195276,28.646457 c 0,-5.25185 4.296968,-9.548818 9.548819,-9.548818 5.25185,0 9.54882,4.296968 9.54882,9.548818 h -9.54882 v 9.54882 h 9.54882 v 19.097639 h -9.54882 v 9.548818 h 9.54882 V 85.939372 H 41.195276 Z"
         id="path827"
         style="fill:#ffffff;fill-opacity:1;stroke-width:9.54882"
         inkscape:export-filename="C:\git\GoveeController\src\GoveeController\Images\ColorTemperature\Action@2x.png"
         inkscape:export-xdpi="5.1337638"
         inkscape:export-ydpi="5.1337638" />
    </g>
  </g>
</svg>
