<?xml version="1.0" encoding="UTF-8" standalone="no"?>
<svg
   height="200"
   viewBox="0 -960 8000 8000"
   width="200"
   version="1.1"
   id="svg4"
   sodipodi:docname="key.svg"
   inkscape:version="1.1.1 (3bf5ae0d25, 2021-09-20)"
   xmlns:inkscape="http://www.inkscape.org/namespaces/inkscape"
   xmlns:sodipodi="http://sodipodi.sourceforge.net/DTD/sodipodi-0.dtd"
   xmlns="http://www.w3.org/2000/svg"
   xmlns:svg="http://www.w3.org/2000/svg">
  <defs
     id="defs8" />
  <sodipodi:namedview
     id="namedview6"
     pagecolor="#505050"
     bordercolor="#ffffff"
     borderopacity="1"
     inkscape:pageshadow="0"
     inkscape:pageopacity="0"
     inkscape:pagecheckerboard="1"
     showgrid="false"
     inkscape:zoom="2.2734375"
     inkscape:cx="46.845361"
     inkscape:cy="25.292096"
     inkscape:window-width="2560"
     inkscape:window-height="1369"
     inkscape:window-x="1432"
     inkscape:window-y="207"
     inkscape:window-maximized="1"
     inkscape:current-layer="svg4" />
  <rect
     style="fill:#00abe7;fill-opacity:1;stroke:none;stroke-width:120;stroke-linejoin:round;stroke-opacity:1"
     id="rect1315"
     width="8000"
     height="8000"
     x="0"
     y="-960" />
  <path
     d="M 3330,4740 2100,3510 q -50,-50 -75,-110 -25,-60 -25,-125 0,-65 25,-125 25,-60 75,-110 l 1150,-1145 -530,-530 310,-325 2000,2000 q 50,50 72.5,110 22.5,60 22.5,125 0,65 -22.5,125 -22.5,60 -72.5,110 L 3800,4740 q -50,50 -110,75 -60,25 -125,25 -65,0 -125,-25 -60,-25 -110,-75 z M 3565,2210 2495,3280 h 2140 z m 1995,2630 q -180,0 -305,-127.5 -125,-127.5 -125,-312.5 0,-135 67.5,-255 67.5,-120 152.5,-235 l 210,-270 220,270 q 80,115 150,235 70,120 70,255 0,185 -130,312.5 -130,127.5 -310,127.5 z"
     id="path2"
     style="stroke-width:5;stroke:none;stroke-opacity:1;fill:#ffffff;fill-opacity:1" />
</svg>
