<?xml version="1.0" encoding="UTF-8" standalone="no"?>
<!-- Created with Inkscape (http://www.inkscape.org/) -->

<svg
   width="200mm"
   height="200mm"
   viewBox="0 0 200 200"
   version="1.1"
   id="svg5"
   inkscape:version="1.1.1 (3bf5ae0d25, 2021-09-20)"
   sodipodi:docname="Key.svg"
   inkscape:export-filename="C:\git\GoveeController\src\GoveeController\Images\TurnOnOff\Action@2x.png"
   inkscape:export-xdpi="28.222223"
   inkscape:export-ydpi="28.222223"
   xmlns:inkscape="http://www.inkscape.org/namespaces/inkscape"
   xmlns:sodipodi="http://sodipodi.sourceforge.net/DTD/sodipodi-0.dtd"
   xmlns="http://www.w3.org/2000/svg"
   xmlns:svg="http://www.w3.org/2000/svg">
  <sodipodi:namedview
     id="namedview7"
     pagecolor="#0bffff"
     bordercolor="#666666"
     borderopacity="1.0"
     inkscape:pageshadow="2"
     inkscape:pageopacity="0"
     inkscape:pagecheckerboard="0"
     inkscape:document-units="mm"
     showgrid="false"
     inkscape:zoom="1.0998546"
     inkscape:cx="74.100703"
     inkscape:cy="447.78646"
     inkscape:window-width="2560"
     inkscape:window-height="1369"
     inkscape:window-x="1432"
     inkscape:window-y="286"
     inkscape:window-maximized="1"
     inkscape:current-layer="layer1" />
  <defs
     id="defs2" />
  <g
     inkscape:label="Layer 1"
     inkscape:groupmode="layer"
     id="layer1">
    <rect
       style="fill:#00abe7;fill-opacity:1;stroke:#d8d8d8;stroke-width:1.30562;stroke-linecap:round;stroke-linejoin:round"
       id="rect1176"
       width="198.69438"
       height="198.69437"
       x="0.65281081"
       y="0.65281081" />
    <g
       style="fill:#000000"
       id="g860"
       transform="matrix(0.635,0,0,0.635,32.196084,35.417464)">
      <g
         id="g829">
        <rect
           fill="none"
           height="20"
           width="20"
           id="rect827"
           x="0"
           y="0" />
      </g>
      <g
         id="g843">
        <g
           id="g841">
          <g
             id="g1725"
             transform="translate(26.037665,21.013806)">
            <path
               d="M 80.690976,2 C 37.312577,2 2,37.312577 2,80.690976 c 0,43.378404 35.312577,78.690974 78.690976,78.690974 10.820011,0 19.672744,-8.85273 19.672744,-19.67274 0,-4.81982 -1.770547,-9.44292 -5.016548,-13.18074 -2.360729,-2.95091 -0.196728,-6.49201 2.950911,-6.49201 h 13.967647 c 26.06639,0 47.21458,-21.148194 47.21458,-47.214582 C 159.38195,33.771481 124.06938,2 80.690976,2 Z M 112.16739,105.28191 H 98.19972 c -10.328193,0 -18.689107,8.36091 -18.689107,18.6891 0,4.6231 1.868911,9.04946 4.623095,12.29547 3.344364,3.8362 0.196727,8.36091 -3.541094,8.36091 -35.214212,0 -63.93642,-28.7222 -63.93642,-63.936414 0,-35.214212 28.82057,-63.936418 64.034782,-63.936418 35.214214,0 63.936414,25.181112 63.936414,56.06732 0,17.902199 -14.55783,32.460032 -32.46,32.460032 z"
               id="path831"
               style="fill:#ffffff;fill-opacity:1;stroke-width:9.83637" />
            <circle
               cx="124.95467"
               cy="75.772804"
               r="12.295465"
               id="circle833"
               style="fill:#ffffff;fill-opacity:1;stroke-width:9.83637" />
            <circle
               cx="100.36372"
               cy="46.263676"
               r="12.295465"
               id="circle835"
               style="fill:#ffffff;fill-opacity:1;stroke-width:9.83637" />
            <circle
               cx="36.427303"
               cy="75.772804"
               r="12.295465"
               id="circle837"
               style="fill:#ffffff;fill-opacity:1;stroke-width:9.83637" />
            <circle
               cx="61.01823"
               cy="46.263676"
               r="12.295465"
               id="circle839"
               style="fill:#ffffff;fill-opacity:1;stroke-width:9.83637" />
          </g>
        </g>
      </g>
    </g>
  </g>
</svg>
