<?xml version="1.0" encoding="UTF-8" standalone="no"?>
<svg
   height="56"
   viewBox="0 0 28 28"
   width="56"
   fill="#000000"
   version="1.1"
   id="svg6"
   sodipodi:docname="Category.svg"
   inkscape:version="1.1.1 (3bf5ae0d25, 2021-09-20)"
   inkscape:export-filename="C:\git\GoveeController\src\GoveeController\Images\GoveeController\Category.png"
   inkscape:export-xdpi="48"
   inkscape:export-ydpi="48"
   xmlns:inkscape="http://www.inkscape.org/namespaces/inkscape"
   xmlns:sodipodi="http://sodipodi.sourceforge.net/DTD/sodipodi-0.dtd"
   xmlns="http://www.w3.org/2000/svg"
   xmlns:svg="http://www.w3.org/2000/svg">
  <defs
     id="defs10" />
  <sodipodi:namedview
     id="namedview8"
     pagecolor="#ffffff"
     bordercolor="#666666"
     borderopacity="1.0"
     inkscape:pageshadow="2"
     inkscape:pageopacity="0.0"
     inkscape:pagecheckerboard="0"
     showgrid="false"
     inkscape:zoom="2.2734375"
     inkscape:cx="23.532646"
     inkscape:cy="116.7835"
     inkscape:window-width="2560"
     inkscape:window-height="1369"
     inkscape:window-x="1432"
     inkscape:window-y="286"
     inkscape:window-maximized="1"
     inkscape:current-layer="svg6" />
  <path
     d="M 0,0 H 24 V 24 H 0 Z"
     fill="none"
     id="path2" />
  <path
     d="m 10,25.25 c 0,0.6875 0.5625,1.25 1.25,1.25 h 5 c 0.6875,0 1.25,-0.5625 1.25,-1.25 V 24 H 10 Z M 13.75,1.5 C 8.925,1.5 5,5.425 5,10.25 c 0,2.975 1.4875,5.5875 3.75,7.175 v 2.825 c 0,0.6875 0.5625,1.25 1.25,1.25 h 7.5 c 0.6875,0 1.25,-0.5625 1.25,-1.25 v -2.825 c 2.2625,-1.5875 3.75,-4.2 3.75,-7.175 0,-4.825 -3.925,-8.75 -8.75,-8.75 z m 3.5625,13.875 -1.0625,0.75 V 19 h -5 v -2.875 l -1.0625,-0.75 C 8.5,14.2 7.5,12.2875 7.5,10.25 7.5,6.8 10.3,4 13.75,4 17.2,4 20,6.8 20,10.25 c 0,2.0375 -1,3.95 -2.6875,5.125 z"
     id="path4"
     style="fill:#c8c8c8;fill-opacity:1;stroke-width:1.25" />
  <path
     style="fill:none;stroke:#c8c8c8;stroke-width:2.3006;stroke-linecap:round;stroke-linejoin:round;stroke-miterlimit:4;stroke-dasharray:none;stroke-opacity:1"
     d="M 17.326128,19.177533 V 11.010016 H 12.9292"
     id="path14414" />
</svg>
