<?xml version="1.0" encoding="UTF-8" standalone="no"?>
<!-- Created with Inkscape (http://www.inkscape.org/) -->

<svg
   width="200mm"
   height="200mm"
   viewBox="0 0 200 200"
   version="1.1"
   id="svg5"
   inkscape:version="1.1.1 (3bf5ae0d25, 2021-09-20)"
   sodipodi:docname="Key.svg"
   inkscape:export-filename="C:\git\GoveeController\src\GoveeController\Images\TurnOnOff\Action@2x.png"
   inkscape:export-xdpi="28.222223"
   inkscape:export-ydpi="28.222223"
   xmlns:inkscape="http://www.inkscape.org/namespaces/inkscape"
   xmlns:sodipodi="http://sodipodi.sourceforge.net/DTD/sodipodi-0.dtd"
   xmlns="http://www.w3.org/2000/svg"
   xmlns:svg="http://www.w3.org/2000/svg">
  <sodipodi:namedview
     id="namedview7"
     pagecolor="#0bffff"
     bordercolor="#666666"
     borderopacity="1.0"
     inkscape:pageshadow="2"
     inkscape:pageopacity="0"
     inkscape:pagecheckerboard="0"
     inkscape:document-units="mm"
     showgrid="false"
     inkscape:zoom="0.77771465"
     inkscape:cx="1.928728"
     inkscape:cy="450.67944"
     inkscape:window-width="2560"
     inkscape:window-height="1369"
     inkscape:window-x="1432"
     inkscape:window-y="286"
     inkscape:window-maximized="1"
     inkscape:current-layer="layer1" />
  <defs
     id="defs2" />
  <g
     inkscape:label="Layer 1"
     inkscape:groupmode="layer"
     id="layer1">
    <rect
       style="fill:#00abe7;fill-opacity:1;stroke:#d8d8d8;stroke-width:1.30562;stroke-linecap:round;stroke-linejoin:round"
       id="rect1176"
       width="198.69438"
       height="198.69437"
       x="0.65281081"
       y="0.65281081" />
    <g
       style="fill:#000000;stroke-width:0;stroke-miterlimit:4;stroke-dasharray:none"
       id="g1053"
       transform="matrix(4.1666667,0,0,4.1666667,50,50)">
      <path
         d="M 0,0 H 24 V 24 H 0 Z"
         fill="none"
         id="path1041"
         style="stroke-width:0;stroke-miterlimit:4;stroke-dasharray:none" />
      <path
         d="M 13.128965,0.45469439 H 10.594112 V 13.128965 h 2.534853 z m 6.121674,2.75031681 -1.799747,1.7997465 c 2.002535,1.6096325 3.282637,4.0811158 3.282637,6.8567813 0,4.904942 -3.967048,8.87199 -8.87199,8.87199 -4.9049434,0 -8.8719904,-3.967048 -8.8719904,-8.87199 0,-2.7756655 1.2801014,-5.2471488 3.269962,-6.8694555 L 4.4724384,3.2050112 C 2.0136297,5.296266 0.45469439,8.3887878 0.45469439,11.861539 c 0,6.299113 5.10773131,11.406843 11.40684461,11.406843 6.299113,0 11.406843,-5.10773 11.406843,-11.406843 0,-3.4727512 -1.558935,-6.565273 -4.017743,-8.6565278 z"
         id="path1043"
         style="fill:#ffffff;fill-opacity:1;stroke:#ffffff;stroke-width:0;stroke-linejoin:round;stroke-miterlimit:4;stroke-dasharray:none;stroke-opacity:1" />
    </g>
  </g>
</svg>
