<?xml version="1.0" encoding="UTF-8" standalone="no"?>
<!-- Created with Inkscape (http://www.inkscape.org/) -->

<svg
   width="200mm"
   height="200mm"
   viewBox="0 0 200 200"
   version="1.1"
   id="svg5"
   inkscape:version="1.1.1 (3bf5ae0d25, 2021-09-20)"
   sodipodi:docname="Key.svg"
   inkscape:export-filename="C:\git\GoveeController\src\GoveeController\Images\TurnOnOff\Action@2x.png"
   inkscape:export-xdpi="28.222223"
   inkscape:export-ydpi="28.222223"
   xmlns:inkscape="http://www.inkscape.org/namespaces/inkscape"
   xmlns:sodipodi="http://sodipodi.sourceforge.net/DTD/sodipodi-0.dtd"
   xmlns="http://www.w3.org/2000/svg"
   xmlns:svg="http://www.w3.org/2000/svg">
  <sodipodi:namedview
     id="namedview7"
     pagecolor="#0bffff"
     bordercolor="#666666"
     borderopacity="1.0"
     inkscape:pageshadow="2"
     inkscape:pageopacity="0"
     inkscape:pagecheckerboard="0"
     inkscape:document-units="mm"
     showgrid="false"
     inkscape:zoom="1.0998546"
     inkscape:cx="280.49162"
     inkscape:cy="473.24437"
     inkscape:window-width="2560"
     inkscape:window-height="1369"
     inkscape:window-x="1432"
     inkscape:window-y="286"
     inkscape:window-maximized="1"
     inkscape:current-layer="layer1" />
  <defs
     id="defs2" />
  <g
     inkscape:label="Layer 1"
     inkscape:groupmode="layer"
     id="layer1">
    <rect
       style="fill:#00abe7;fill-opacity:1;stroke:#d8d8d8;stroke-width:1.30562;stroke-linecap:round;stroke-linejoin:round"
       id="rect1176"
       width="198.69438"
       height="198.69437"
       x="0.65281081"
       y="0.65281081" />
    <g
       style="fill:#000000"
       id="g837"
       transform="matrix(1.1532641,0,0,1.1532641,68.555142,50)">
      <rect
         fill="none"
         height="20"
         width="20"
         id="rect825"
         x="0"
         y="0" />
      <path
         d="m 27.265965,31.312092 c 6.647798,0 12.043113,5.395314 12.043113,12.043112 0,6.647798 -5.395315,12.043113 -12.043113,12.043113 -6.647798,0 -12.043112,-5.395315 -12.043112,-12.043113 0,-6.647798 5.395314,-12.043112 12.043112,-12.043112 z m 0,-7.225868 c -10.646111,0 -19.2689795,8.622869 -19.2689795,19.26898 0,10.646111 8.6228685,19.26898 19.2689795,19.26898 10.646111,0 19.26898,-8.622869 19.26898,-19.26898 0,-10.646111 -8.622869,-19.26898 -19.26898,-19.26898 z M -2.8418159,46.968138 c 1.97507064,0 3.61293381,-1.637863 3.61293381,-3.612934 0,-1.97507 -1.63786317,-3.612934 -3.61293381,-3.612934 h -9.6344891 c -1.975071,0 -3.612934,1.637864 -3.612934,3.612934 0,1.975071 1.637863,3.612934 3.612934,3.612934 z m 69.8500519,0 c 1.975069,0 3.612932,-1.637863 3.612932,-3.612934 0,-1.97507 -1.637863,-3.612934 -3.612932,-3.612934 h -9.634491 c -1.97507,0 -3.612933,1.637864 -3.612933,3.612934 0,1.975071 1.637863,3.612934 3.612933,3.612934 z M 23.653031,13.247423 c 0,1.975071 1.637864,3.612934 3.612934,3.612934 1.975071,0 3.612934,-1.637863 3.612934,-3.612934 V 3.612934 C 30.878899,1.6378633 29.241036,0 27.265965,0 25.290895,0 23.653031,1.6378633 23.653031,3.612934 Z m 22.352017,6.262418 c -1.397002,1.397002 -1.397002,3.709279 0,5.106281 1.397001,1.397 3.709279,1.397 5.106279,0 l 5.106279,-5.106281 c 1.397002,-1.397 1.397002,-3.709278 0,-5.106279 -1.397,-1.397 -3.709278,-1.397 -5.106279,0 z M -1.6856768,67.200566 c -1.3970006,1.397001 -1.3970006,3.709279 0,5.106279 1.39700051,1.397002 3.7092786,1.397002 5.1062791,0 l 5.1062803,-5.106279 c 1.3970005,-1.397 1.3970005,-3.709278 0,-5.106279 -1.3970017,-1.397002 -3.7092786,-1.397002 -5.1062803,0 z M 3.4206023,24.616122 c 1.3970017,1.397 3.7092786,1.397 5.1062803,0 1.3970005,-1.397002 1.3970005,-3.709279 0,-5.106281 L 3.4206023,14.403562 c -1.3970005,-1.397 -3.70927859,-1.397 -5.1062791,0 -1.3970006,1.397001 -1.3970006,3.709279 0,5.106279 z M 51.111327,72.306845 c 1.397001,1.397002 3.709279,1.397002 5.106279,0 1.397002,-1.397 1.397002,-3.709278 0,-5.106279 l -5.106279,-5.106279 c -1.397,-1.397002 -3.709278,-1.397002 -5.106279,0 -1.397002,1.397001 -1.397002,3.709279 0,5.106279 z m -27.458296,10.79063 c 0,1.975069 1.637864,3.612932 3.612934,3.612932 1.975071,0 3.612934,-1.637863 3.612934,-3.612932 v -9.634491 c 0,-1.97507 -1.637863,-3.612933 -3.612934,-3.612933 -1.97507,0 -3.612934,1.637863 -3.612934,3.612933 z"
         id="path827"
         style="fill:#ffffff;fill-opacity:1;stroke-width:4.81724" />
    </g>
  </g>
</svg>
